<svg width="12.500000" height="11.000000" viewBox="0 0 12.5 11" fill="none" xmlns="http://www.w3.org/2000/svg" xmlns:xlink="http://www.w3.org/1999/xlink">
	<desc>
			Created with Pixso.
	</desc>
	<defs/>
	<path id="Vector" d="M4.625 4.40625L12.125 4.40625C12.1938 4.40625 12.25 4.3501 12.25 4.28125L12.25 3.40625C12.25 3.3374 12.1938 3.28125 12.125 3.28125L4.625 3.28125C4.55615 3.28125 4.5 3.3374 4.5 3.40625L4.5 4.28125C4.5 4.3501 4.55615 4.40625 4.625 4.40625ZM4.5 7.59375C4.5 7.6626 4.55615 7.71875 4.625 7.71875L12.125 7.71875C12.1938 7.71875 12.25 7.6626 12.25 7.59375L12.25 6.71875C12.25 6.6499 12.1938 6.59375 12.125 6.59375L4.625 6.59375C4.55615 6.59375 4.5 6.6499 4.5 6.71875L4.5 7.59375ZM12.375 0L0.125 0C0.0561523 0 0 0.0561523 0 0.125L0 1C0 1.06885 0.0561523 1.125 0.125 1.125L12.375 1.125C12.4438 1.125 12.5 1.06885 12.5 1L12.5 0.125C12.5 0.0561523 12.4438 0 12.375 0ZM12.375 9.875L0.125 9.875C0.0561523 9.875 0 9.93115 0 10L0 10.875C0 10.9438 0.0561523 11 0.125 11L12.375 11C12.4438 11 12.5 10.9438 12.5 10.875L12.5 10C12.5 9.93115 12.4438 9.875 12.375 9.875ZM0.475098 7.53271L2.91699 5.60938C2.93359 5.59644 2.94678 5.58008 2.95605 5.56104C2.96533 5.54224 2.96973 5.52173 2.96973 5.50073C2.96973 5.47998 2.96533 5.45923 2.95605 5.44043C2.94678 5.42163 2.93359 5.40503 2.91699 5.39209L0.475098 3.46729C0.384277 3.39526 0.25 3.45947 0.25 3.57495L0.25 7.42334C0.25 7.44946 0.257324 7.4751 0.270996 7.49731C0.285156 7.51929 0.304688 7.53711 0.328125 7.54858C0.351562 7.56006 0.37793 7.56445 0.403809 7.56177C0.429688 7.55908 0.45459 7.54883 0.475098 7.53271Z" fill="#8C8C8C" fill-opacity="1.000000" fill-rule="nonzero"/>
</svg>
